<svg xmlns="http://www.w3.org/2000/svg" width="372" height="611"><path fill="#212121" d="M233.6 580.5c11.1 0 17 5.8 17 14.2 0 9.6-7 16-22.8 16.3H200c-18.8 0-22-10.5-22-16.8h15c.3 2.3 3.2 3.6 8 3.6h26.8c5.4 0 7.6-1 7.6-2.9 0-1.3-1.2-2.5-4.6-2.5h-34.4c-11.7 0-17.6-5.3-17.6-13.7 0-8.2 5.3-16.3 22-16.4H228c19 0 21.4 11.8 21.4 16.4h-14.9c-.2-2-2-3.7-6.9-3.7h-27c-5.5 0-6.8 1.6-6.8 3s1.1 2.5 4.2 2.5h35.5Z"/><path fill="#212121" d="M154.6 563.1c14.7 0 25.8 9 25.8 23.6 0 14.5-11.1 23.5-25.8 23.5h-47.7v-47h47.7Zm0 34.2c6.2-.2 10.8-4.7 10.8-10.6 0-6.1-4.6-10.7-10.8-10.7h-33v21.3h33Z"/><path fill="#212121" d="m94.6 610.2-2-7.5H47.9l-2 7.5H31l12.5-47h53.8l12.4 47h-15Zm-43.4-20.6h38l-3.5-13.5h-31l-3.5 13.5Zm247.6-67c11.2 0 17 6 17 14.3 0 9.7-6.9 16-22.7 16.3h-27.8c-18.9 0-22-10.5-22-16.8h14.9c.4 2.3 3.2 3.6 8 3.6h26.9c5.3 0 7.5-1 7.5-2.9 0-1.3-1.1-2.5-4.5-2.5h-34.4c-11.7 0-17.6-5.3-17.6-13.7 0-8.2 5.3-16.2 21.9-16.4h27.4c19 0 21.4 11.8 21.4 16.4h-15c-.2-2-2-3.7-6.8-3.7h-27c-5.6 0-6.9 1.6-6.9 3s1.2 2.5 4.2 2.5h35.5Z"/><path fill="#212121" d="M194.2 553.2c-14.4 0-23.2-7.7-23.2-22.3v-25.6h14.8v24.8c0 5 2.2 9.3 8.4 9.3h27c6.2 0 8.3-4.3 8.3-9.3v-24.8h14.8V531c0 14.6-8.8 22.3-23.2 22.3h-26.9ZM171 518.1h-50.4v4.7h45.8v12.3h-45.8v4.5H171v12.8h-65.2v-47H171V518Z"/><path fill="#212121" d="M81.2 505.3c14.8 0 26 9 26 23.6 0 14.5-11.2 23.5-26 23.5H33.6v-47h47.6Zm0 34.2c6.3-.1 10.9-4.6 10.9-10.6s-4.6-10.7-10.9-10.7H48.3v21.3h33ZM337.5 504c6 0 10.5 4.5 10.5 10.5s-4.4 10.5-10.5 10.5-10.5-4.5-10.5-10.5 4.4-10.5 10.5-10.5Zm0 18c4.7 0 7.3-3.5 7.3-7.5s-2.6-7.5-7.3-7.5-7.3 3.6-7.3 7.5c0 4 2.6 7.4 7.3 7.4Zm5-8.9c0 1.3-.6 2.5-1.6 3.2l1.7 2.9h-3.3l-1.2-2.3h-1.8v2.3h-3v-10h5.2c2.4 0 4 1.8 4 3.9Zm-6.2-1.1v2.2h2.2c.5 0 1-.5 1-1.1 0-.6-.5-1.1-1-1.1h-2.2Z"/><path fill="#D94625" fill-rule="evenodd" d="M262.7 0h1.3c1 .3 1.6 1.1 2 2 .7 1.6 1.3 4.7.5 6.4-.8 1.7-4.7 2.7-7.2 3.4l-1.6.4.2 4.8v.5c6.9-1.7 13.6-4 20.4-6.3 4-1.4 8.2-2.8 12.3-4 8-2.5 11.7 0 16.7 3.5 1.7 1.1 3.5 2.4 5.7 3.5l1.3 216.4h-4.4l-2.8 2.6c-1.6 1.5-3.3 3-5.2 4.1l-10-.2v25.1c-6.6 0-13.3-.6-20-1.1l-7.3-.6-38.5-2.6-8.7-.7c-6-.5-12-1-18-1.3v41h-26.9s-.8-25.6-.8-42.7c-2.9-.4-5.8-.6-8.8-.8l-3-.2-21-1.6-13.6-1c-14.7-1.2-29.4-2.4-44-3.3a252.4 252.4 0 0 0-8.2-.6v-17c-1.4-.2-3-.2-4.6-.2-3.5 0-7.4.1-10-1.1-2.2-1-4.1-3-4.8-5.3a123.4 123.4 0 0 1-.3-20.7v-94.7l-.1-5.2V89.3c.1-1.6.4-2.6 1.2-4 1-1.8 1.8-3 3.5-4.2 3-1.8 6.8-3 10.3-4l3.5-1a1304.7 1304.7 0 0 1 18.8-5.8V66c-6.6 2-9 1.8-8.6-5.6 3-1.5 14.1-5 16-5 2 .8 2.3 5.6 1 7.4-.7 1-3 1.5-4.4 1.9l-1 .2v4.5l43-13.4-.1-4.7-2.9 1-2.7.8c-1 .3-2.3.5-3.2-.2-.7-.4-1-1.2-1.2-2-.4-1.4-.3-3.6.5-4.9a76 76 0 0 1 17.3-6.3c.6.2 1 .4 1.5.9 1.4 1.7 1.1 4.6.9 6.7v.6c-1.7.8-3.6 1.4-5.4 2-.4 0-.9.2-1.4.4v4.5l.4-.1c3-.5 6.1-1.5 9.1-2.5a531.8 531.8 0 0 0 14.9-5c7.7-2.6 15.5-5.3 23.4-7.2v-4.8l-3 1c-1.3.5-2.7 1-4.1 1.2-1.1.1-1.8 0-2.7-.6-1-1.6-1.3-4.9-1-6.8.2-.5.3-.8.9-1 2-1.2 18.4-6.8 19.5-6.4.8.3 1.3 1 1.6 1.7.7 1.6 1 4.8.2 6.3-.7 1.7-4.1 2.5-6.5 3l-1.6.5.2 4.6a84 84 0 0 0 6.7-2l2.5-.8c5-1.5 9.9-3 14.8-4.7L254 18.8v-5.5l-2.1.7c-2.4 1-5.4 2-7.3 1.5-.8-.2-1.5-.8-1.8-1.5-.8-1.8-.6-4.7.2-6.4.3-.7.6-1 1.3-1.3 1.2-.6 2.7-1 4.1-1.4l2.1-.6L262.7 0ZM67 216.5V88.9L281 24l2.4 182L67 216.4ZM77 236l206 7.6v6.1l-206-9.5V236Z"/><path fill="#fff" d="M73.5 221a10.2 10.2 0 0 0-4 8.5c75.3 2.3 225.8 6.6 225 5-.8-1.6-6.7-6-9.5-8V222l12 9.5-4.5-21 4.5-2-4.5-6L303 201l-12-8 7.5-12-10.5 3 6.5-18c-5.5 4.3-16.9 13-18.5 13h-3.5l-3.5-19.5a92.3 92.3 0 0 0-7.5 7.5 39 39 0 0 0-4.5 15l-4.5 1H238l5.5 5.5-11 6 4.5 9-3 5 5.5 6.5-1.5 2.5c.7 1.5 1.9 4.5 1.5 4.5-1.3 0-9.2 6-10 4.5-2.5-4.5-13-7.5-15.5-9s-16-9.5-17-10.5c-.8-.8 20-18 9-17 3.7-5.7 3.3-15.7 2.5-16.5-.8-.8-5-1-7-1V168c1.5-2.8 4.5-8.7 4.5-9.5 0-1-2-2.5-3.5-1.5-1.2.8-4.2 1.3-5.5 1.5-.5-.8-1.5-2.9-1.5-4.5 0-2-3.5-10-5.5-10.5-1.6-.4-3.3 6.2-4 9.5h-6c-3 0-4.5-9-6-8-1.2.8-2.5 7.7-3 11l-1.5 3.5c-2.7-.5-8.2-1.2-9 0-.8 1.2 2 6.8 3.5 9.5v3.5c-1.5.2-4.7 1.1-5.5 3.5-1 3 6.5 8.5 7 9 .4.4-3.7.7-5 3.5 0 6 7 19 3.5 23.5-2.6 3.4-18.2 5.3-21 7.5a80.6 80.6 0 0 1-21-13.5c-1.6-2.8-6-4.2-8-4.5V197c2.2-.5 6.4-2.1 6-4.5-.5-3-7-19.5-15-23.5s-14 0-17.5 2.5-6.5 10.5-6 20c.4 7.6 4.2 15.8 6 19l-14 10.5Z"/><path fill="#212121" d="M80.3 436c-10-.5-55.5 4.4-77 6.8h-2v1.9c-1.5 1.4-3 4.4 3.5 5 8 .5 5.5 1.8 7.5 1.8h24.5c8 0 16 2 19 3-1.3.9-4.6 2.6-7 3.1-3 .7-5.5 3.7-5.5 5.6 0 1.8 12.5 1.8 20.5 1.8s19.5-2.4 27-1.8a63 63 0 0 1 20 5.5c1.5 1.3 4 3.1 9.5 3.1s9.5 0 18-1.8c8.6-1.9 38.6-1.3 40-1.3 1.6 0-1.4 1.9 0 3.1 1.6 1.3 34.6 1.9 37.6 0 3-1.8 9.5-3 14.5-3s30 1.8 37 1.8 10.5-4.3 17-5.6c5.2-1 36.2-3.2 51-4.3.9-.2 2.5-.8 2-1.8-.3-1-4.1-3-6-3.7 12.9-1.3 38.4-4 37.6-5-1-1.2-3.5-2.4-8-2.4s-11.5-5-16.5-5c-4 0-17.4-1.6-23.5-2.4-3.4.8-11.5 2-17 0-7-2.5-21.6 2.4-27 2.4-5.6 0-30-9.8-55-9.8-20 0-17 14.8-20.6 14.8.7-1.7-.5-5-10.5-5h-63c3.8-2.2 10.6-6.8 7.4-6.8-4 0-42.5.7-55 0Z"/><path fill="#212121" d="M332.8 260c-.6-.2-7.3-5.8-7.3-5.8.3 1.5.7 3 .9 4.6.1 1.6-13.7 25.9-13.7 25.9l-3.5-1.1c-1.2-3.6-2.2-6.2-2.8-6l-3.2-3.2c-4-3.8-8.9-8.3-8.7-12.8.1-2.5 1.1-5 2-7.4l1-2.2-.2-.5c-2.5-8-5.8-18.5-13.4-22.5a70 70 0 0 0-4.3-2l-1-.4.2-1.5c.2-2 .7-3.9 1.3-5.8a17.2 17.2 0 0 1 1.8 2.5h.7a4.6 4.6 0 0 0 0-2.3c-.2-1-.3-1.9.3-2.2 4 1.2 6.7 4.6 9.2 7.9l1 1.3a57 57 0 0 0-1.3-3.9c-1.9-4.8-4.4-11.4-3-14.4a3.1 3.1 0 0 1 1.4-1.3l.4-.2.7-.6v-.1c-.8-2-2-3.5-3.5-5.2h-.1l.9-.2a61 61 0 0 1 6.2-1l-1.6-.5c-2.5-1-5.2-2-6.4-4.4 0-2 .7-3 2-4.5a309.2 309.2 0 0 1 4.5-4.7 76 76 0 0 1-12 4c2.9-5.5 5.8-10.8 9-16-1.2.9-2.4 2-3.7 3.3-3 2.8-6.2 6-9.3 7.1-1.3-1-1.4-1-3-1.1a25.1 25.1 0 0 0-3.8 2.2 122.3 122.3 0 0 1-4.8-18 357.8 357.8 0 0 1-1.2 2.6c-2.2 5-4.4 9.9-4.4 15.6-4.6.1-9.1.6-13.6 1.2l5.2 3a125 125 0 0 0-11 5.5l.2.6c.5 1 1 2 .7 3.4l-.3.4a5.2 5.2 0 0 0-1.2 3l.5-.3.7-.4.8-.3c0 2-1 4-1.8 6l-.4.7.7 1.6c1.1 2.2 2.2 4.4 2.6 6.8l-.3.6a2.5 2.5 0 0 0-.3 2.4l1.8 1a6.1 6.1 0 0 1 2.5 1.6l.2 1.3a4 4 0 0 1-2.2.7h-.5a27 27 0 0 0-12.2 5.3c-3 5.7-6.1 12.4-7.2 18.7 0 .2.2.3.3.5l.6 1.4a21 21 0 0 1-1.9 6.9 37 37 0 0 0-1.3 4 35.7 35.7 0 0 0-.7 8.8c-3.5 3-7.3 6.3-7.7 11.3-.4 4.7 2.4 8.3 5 11.8l1.2 1.5-1 2.5c-1 2.3-2 4.7-2.7 7 3.3 1.8 8.1 5.2 9.3 9 .3 1.6.5 3.2.5 4.8 0 3.8.2 8 3 9.4l1.4.4h.2a21.9 21.9 0 0 1-1.5 5.5l-.9 2.6c-1.6 5.1-2.2 13.7 1.6 18a2.4 2.4 0 0 0 1.7 1h.1c1.8-.8 2.3-2.2 2.9-4l.5-1.6a38.4 38.4 0 0 1 1.5-4.2c0 1.5.3 3.8.7 6.4.8 7.2 2 17 0 19.6-1.2 1.3-2.9 1.9-4.6 2.5-1.9.6-3.8 1.2-5.2 2.9-3.7 4.7-3.7 15.6-3.7 23.6v5.6l-.7 6a69.3 69.3 0 0 0-.6 7 6.2 6.2 0 0 0 1.7 4.7 5.2 5.2 0 0 0 2 1.2 9 9 0 0 1-1.2 3.2 22.8 22.8 0 0 0-1.6 10c.5 0 1 .2 1.4.3 3 1 5.9 2.2 9 2.5 3.1.3 6.3 0 9.4-.2a37 37 0 0 1 9.3.3c2.8.5 5.5 1.6 8.2 2.4 6 1.8 12.2 1.4 18.3 2.3a2.4 2.4 0 0 1 2 2v1l5.5.8c8 1.3 18.3 3 20.6-1.9a8.7 8.7 0 0 0 .9-4.7 17 17 0 0 0-6.9-3.5c-2.2-.8-4.5-1.6-6.4-3.3-1.4-1.2-2.7-3.5-4-5.7a17.1 17.1 0 0 0-3.8-5.2c-1.5-1-1.8-1.4-2.3-3 .5-.7.8-.7 1.1-.8.3 0 .6 0 .9-.2 1.4-1 2.3-6.4 2.8-9.3l.2-1.5a50.6 50.6 0 0 1-2-7.3l1.4-3.1c2.5-5.3 6.5-13.6 5.5-16.2a37.5 37.5 0 0 0-.8-1.8c.5-1.4 1.7-2.7 2.8-3.9l1.3-1.4-.8-.6c-1-.7-2.1-1.5-3-2.4a340.4 340.4 0 0 1 2.2-5 90.2 90.2 0 0 0 9.5-30.5c.3-4.1-.3-7.7-1-11.4a113.3 113.3 0 0 1-.7-4.7v-.4c-.2-.4-.2-.7.2-1 1.9 3.1 2.8 6.7 3.7 10.3.5 1.6 5.8-27.8 5.8-27.8l-.7-3.3 2.2-4.4 7.3 2.1 8.3-4.9-12.8-4.7s14.8-27 14.3-27.2Zm-84.1 52.6c-2.8.9-11.7-3.2-11.7-3.2v-12.6l-3-9.4s6.2-8 7-11.1c.7-3.2 5.4-7 5.4-7l12.2 22.2s-7.2 20.3-10 21.1ZM43 285.1a37 37 0 0 0-6-1.7l-9.1 3.2-4.5-3.4 8.2-3.7c-.2-1.8 1.8-4.3 7.8-7.8.2-1 .5-2 .9-2.9 3.5-6.6 15.6-10.7 22.2-13h.1a64.1 64.1 0 0 1 4.9-7.7 55.5 55.5 0 0 0 5.1-8.6 43.6 43.6 0 0 1-.2-6.2c.2-6.8 3.1-8.6 7.1-11.2a47.6 47.6 0 0 0 4.2-2.9 53 53 0 0 0 4.8-4.6c1-1 2.1-2.2 3.2-3.1a37.7 37.7 0 0 1-7.6-19.7c-.2-5.2.3-10.7 4-14.6a13.7 13.7 0 0 1 9.5-4.2 12.9 12.9 0 0 1 9.2 4.3c3.3 3.4 6.8 10.6 6.3 15.5a4 4 0 0 1-2 2.7l-.6.2h-.3l-.2.5a58.5 58.5 0 0 1-.3 7.4A19.9 19.9 0 0 1 122 212l.7 1a14.2 14.2 0 0 0 2 2.3l.3.3.2.2c2.9.8 14.2 5.7 15.5 8.4a18.1 18.1 0 0 1 1.2 7.4c0 1.7.1 3.4.4 5a80.8 80.8 0 0 0 4 12c3.6 9.2 7.2 18.6 3 27.7a20.5 20.5 0 0 1-11.3 10.9 20.6 20.6 0 0 1-8.2.7h-.7l-.8.4a10 10 0 0 0 2.9 7c2.4 3.3 4.8 6.4-2 13.5l.6 6c1 10.6 2.1 22-1.2 31.9l.5.3a9.2 9.2 0 0 1 4.5 5.4 6 6 0 0 1-1.6 4.9 49.1 49.1 0 0 1-1.8 2.1l2.4 2.4c6.8 6.7 13 12.7 13 23.4a73 73 0 0 1-.7 8.6l-.6 6.7c-.3 5.9 2.4 17-1.3 21.3-1.9 2.2 12.7 11.2 11.8 22.7-3.2.6 0 0-1.6 0a52.1 52.1 0 0 1-6.6-.3h-11c-4.2.4-8.4.2-12.5-.4a6.5 6.5 0 0 1 .3-4.8c1.4-3.7 6.6-6.9 8.4-8.7 3.2-3.3.5-10.7-3.6-11.4-4.1-.7-2.8-12-5.8-16.4a86.8 86.8 0 0 1-6.9-11 40.2 40.2 0 0 1-3-10.4 45 45 0 0 0-2.2-8.7 6 6 0 0 0-3-3c-2.4-1.4-4.8-2.8-3.4-13-6-4.8-7.6-9.2-9.7-16.4a71.6 71.6 0 0 1-13.8 22 43.6 43.6 0 0 0 3.2 8.7 29.5 29.5 0 0 1 3.4 10.8c.1 4.2-2.8 8.8-5.5 13a55.1 55.1 0 0 0-3.4 5.9 90.4 90.4 0 0 0-6.8 19.3 25.7 25.7 0 0 0 1 10.1 49.7 49.7 0 0 1 1 12.5v.7h-14a223 223 0 0 1-29.5-1.2v-.6a7.9 7.9 0 0 1 1-6.3 17.5 17.5 0 0 1 7.4-5h.2l1.5-.7a32.6 32.6 0 0 0 10.9-6.6c5.4-5.5 5.8-21.1 6.1-29.6V392l-4-3.4a85.7 85.7 0 0 1 5.9-27.7l-1-4c-2.2-9-4.7-19.5-2.4-28.2a62.5 62.5 0 0 1 4.3-10.8l1-2 1-2.1a40.4 40.4 0 0 0 4.4-12.3 10 10 0 0 1-5.6-6.4c-1.1-4.5 1.4-9.2 3.7-13l-2.6 1c-4.9 1.3-16.4 6.4-18.6 2.1Zm8.5-21.7c-4.1 1.5-8.1 7.8-8.1 7.8l19.3-9a36.2 36.2 0 0 0-11.2 1.3Z"/><path fill="#212121" d="M243.4 451.6a7 7 0 0 0-3.7-3.8 1.3 1.3 0 0 1-.7-1.5 100.3 100.3 0 0 1-12.5-8.4v-3.2c0-4.2 0-8.4.2-12.5l1.7-.8c3.4-1.6 8.6-4 9.3-7.3.8-3.9-4.9-32.3-6.6-37.3a19.2 19.2 0 0 0-3.2-5.8 22.6 22.6 0 0 0-4.2-4 95.6 95.6 0 0 1-.8-11.5 99.9 99.9 0 0 0-.7-11.1 44.9 44.9 0 0 0-2.3-8 49.5 49.5 0 0 1-2.1-7.2 11.9 11.9 0 0 1 .2-4.2c.3-1.3.3-2.6.2-3.9a10.7 10.7 0 0 0-1.1-3 8.8 8.8 0 0 1-1-3.8c4-3.1 9.2-3.2 14.2-3.2 1.7 0 3.3 0 4.9-.2 5.5-11 3.9-28.3.7-39.8 3.8-7.2 1.1-20.2-1.1-27.7-1.7-5.4-7-16.8-12.3-19.3a4.8 4.8 0 0 0-2.2-.3 5.5 5.5 0 0 1-2.1-.1 81.8 81.8 0 0 1-9.8-4.5l-6.2-2.9a11.3 11.3 0 0 0-6.3-5.4l-1-1.5a48.9 48.9 0 0 0-3-4.3 91 91 0 0 1 2.3-2.3c3.4-3.7 8.7-9.3 9-12.3a13.6 13.6 0 0 0-4.7-.6h-1v-2.6a22.4 22.4 0 0 1 .1-7 6.2 6.2 0 0 1 1.8-2.3 4 4 0 0 0 1.6-4 2.6 2.6 0 0 0-1.1-.3 4 4 0 0 0-1 .5 15.4 15.4 0 0 0-2.5 1.6l-.5.3-4.4-5.3V169a16.8 16.8 0 0 0-.5-6.7l-.8-.4a7 7 0 0 0-1.6 3.8 5.9 5.9 0 0 1-1.6 3.6l-.4-.3a5.6 5.6 0 0 0-5.3-.8l-3.3 1.1-.5.2c0-.4 0-.7-.3-1.1a12.7 12.7 0 0 0-2-5.9h-1a13.2 13.2 0 0 0-.8 7.3v1a41.7 41.7 0 0 1-4 5l-.7-.4a6.7 6.7 0 0 0-4-1.2l-.7.6c0 .8.3 1.6.6 2.3a5.1 5.1 0 0 0 1.6 1.7 37.9 37.9 0 0 0 2 1.6v2a15 15 0 0 1-1 7.3l-3.5.4-.6.9c.7 3.5 4.9 7.6 8.3 11 1.1 1 2.2 2.1 2.9 3a25.3 25.3 0 0 1-3.6 5 23.8 23.8 0 0 0-3.5 5 6.2 6.2 0 0 1-.3.6v.3l-.8.4a87.3 87.3 0 0 1-9.3 3.6c-8 2.7-12.6 4.3-17.3 17l-1.7 4.6c-3.6 9.2-7.8 19.8-5.5 29.3l-23.9-17.6-9.9-7.3-1 1a9.8 9.8 0 0 0-4.5 6.4c1.3 3.5 20 17.6 28.3 24l3 2.4a615.4 615.4 0 0 0-3.5 10.4 19.9 19.9 0 0 1 1.5 5.9 20.5 20.5 0 0 0 1.5 6l.6 1.2a7.8 7.8 0 0 1 1.4 4.2l-2 .8a14 14 0 0 0 1.3 10A22.1 22.1 0 0 0 137 326a1.7 1.7 0 0 0 2-.4l.4-1h.5a3.2 3.2 0 0 0 3.1-.3 7.4 7.4 0 0 0 3.2-5.1 46.6 46.6 0 0 0 0-7.9v-3.3a6.4 6.4 0 0 1 2-.4h.6v1.5a5.4 5.4 0 0 0 1 3.9 5.4 5.4 0 0 0 1.7.8l.3.2c.7 4.3-1.5 13.4-2.6 18.3l-.2.8a1.6 1.6 0 0 0 0 .4 6.3 6.3 0 0 1-.2.7 8.8 8.8 0 0 1-3.3 3.9 8.5 8.5 0 0 0-4 8 11.3 11.3 0 0 0 4.3 5h.5l1.2-2c1.4 2 1.1 7.5 1 11.8l-.2 4.4-1.6 1.1a27.2 27.2 0 0 0-7.2 6.1c-2.6 3.5-4.8 17.6-6 25.8l-.9 4.8-.3 1.5c-.6 3.2-1.6 7.8 0 10 2.2 3.2 7.1 5.2 10.6 6.5a93 93 0 0 1 .7 15.7c-3.8 3.4-12.1 12-11.9 17.6l.3 1.2v.2c2 1.2 17.2.8 25.2.7h4.2a76 76 0 0 0-3.9-16.7l.4-1.3c1.3-5.6 2.7-11.2 4.4-16.7a20.8 20.8 0 0 0 14.3-7.1l-1.5-12c2.5-4.9 4.9-9.6 3-15.2a69.5 69.5 0 0 0-3.3-7.3l-3-6.3c.7-1.8 1.6-4.8 2.5-8.2 2.3-8.3 5.3-19.2 8.3-21.6a3 3 0 0 1 3 1c4.4 4 9.6 22.9 11.5 30 0 .2 0 .5.2.7l-1.2 2.5c-3.2 6.7-6.1 12.6-3.4 20.5a56.5 56.5 0 0 0 1.8 4.3l-.3 1.5c-.8 4-1.6 8.4 1 12a15.8 15.8 0 0 0 10.5 5.3h1.1c3.7 12 3.3 15.9 2.7 22a113.6 113.6 0 0 0-.5 12.6l34.6.2a18.6 18.6 0 0 0-.1-5.2ZM164 280a15.3 15.3 0 0 1-3.2 4.6 2.5 2.5 0 0 1-2.6.4l-.8-.1-.3-.9a11 11 0 0 0-2.4-3.8l-2.9-2.5c.4-1.4 4.2-3.6 6.8-5l1.6-1a10.9 10.9 0 0 1 4.8 5l.4.8a21.4 21.4 0 0 0-1.4 2.5Zm45.8 6.6a5.4 5.4 0 0 1-1.8-2.8 7.7 7.7 0 0 0-1-2 9.8 9.8 0 0 0-2-1.7 13.4 13.4 0 0 1-1.6-1 352.6 352.6 0 0 1 4.1-7.3 21.3 21.3 0 0 1 6.4 4.9l.7.7a25 25 0 0 0-4.8 9.2Z"/></svg>